solid 
  facet normal 0.000000E+00 0.000000E+00 1.000000E+00
    outer loop
      vertex 1.000000E+00 1.000000E+00 1.000000E+00
      vertex -1.000000E+00 1.000000E+00 1.000000E+00
      vertex -1.000000E+00 -1.000000E+00 1.000000E+00
    endloop
  endfacet
  facet normal 0.000000E+00 0.000000E+00 1.000000E+00
    outer loop
      vertex 1.000000E+00 1.000000E+00 1.000000E+00
      vertex -1.000000E+00 -1.000000E+00 1.000000E+00
      vertex 1.000000E+00 -1.000000E+00 1.000000E+00
    endloop
  endfacet
  facet normal 0.000000E+00 -1.000000E+00 0.000000E+00
    outer loop
      vertex 1.000000E+00 -1.000000E+00 -1.000000E+00
      vertex 1.000000E+00 -1.000000E+00 1.000000E+00
      vertex -1.000000E+00 -1.000000E+00 1.000000E+00
    endloop
  endfacet
  facet normal 0.000000E+00 -1.000000E+00 0.000000E+00
    outer loop
      vertex 1.000000E+00 -1.000000E+00 -1.000000E+00
      vertex -1.000000E+00 -1.000000E+00 1.000000E+00
      vertex -1.000000E+00 -1.000000E+00 -1.000000E+00
    endloop
  endfacet
  facet normal -1.000000E+00 0.000000E+00 0.000000E+00
    outer loop
      vertex -1.000000E+00 -1.000000E+00 -1.000000E+00
      vertex -1.000000E+00 -1.000000E+00 1.000000E+00
      vertex -1.000000E+00 1.000000E+00 1.000000E+00
    endloop
  endfacet
  facet normal -1.000000E+00 0.000000E+00 0.000000E+00
    outer loop
      vertex -1.000000E+00 -1.000000E+00 -1.000000E+00
      vertex -1.000000E+00 1.000000E+00 1.000000E+00
      vertex -1.000000E+00 1.000000E+00 -1.000000E+00
    endloop
  endfacet
  facet normal 0.000000E+00 0.000000E+00 -1.000000E+00
    outer loop
      vertex -1.000000E+00 1.000000E+00 -1.000000E+00
      vertex 1.000000E+00 1.000000E+00 -1.000000E+00
      vertex 1.000000E+00 -1.000000E+00 -1.000000E+00
    endloop
  endfacet
  facet normal 0.000000E+00 0.000000E+00 -1.000000E+00
    outer loop
      vertex -1.000000E+00 1.000000E+00 -1.000000E+00
      vertex 1.000000E+00 -1.000000E+00 -1.000000E+00
      vertex -1.000000E+00 -1.000000E+00 -1.000000E+00
    endloop
  endfacet
  facet normal 1.000000E+00 0.000000E+00 0.000000E+00
    outer loop
      vertex 1.000000E+00 1.000000E+00 -1.000000E+00
      vertex 1.000000E+00 1.000000E+00 1.000000E+00
      vertex 1.000000E+00 -1.000000E+00 1.000000E+00
    endloop
  endfacet
  facet normal 1.000000E+00 0.000000E+00 0.000000E+00
    outer loop
      vertex 1.000000E+00 1.000000E+00 -1.000000E+00
      vertex 1.000000E+00 -1.000000E+00 1.000000E+00
      vertex 1.000000E+00 -1.000000E+00 -1.000000E+00
    endloop
  endfacet
  facet normal 0.000000E+00 1.000000E+00 0.000000E+00
    outer loop
      vertex -1.000000E+00 1.000000E+00 -1.000000E+00
      vertex -1.000000E+00 1.000000E+00 1.000000E+00
      vertex 1.000000E+00 1.000000E+00 1.000000E+00
    endloop
  endfacet
  facet normal 0.000000E+00 1.000000E+00 0.000000E+00
    outer loop
      vertex -1.000000E+00 1.000000E+00 -1.000000E+00
      vertex 1.000000E+00 1.000000E+00 1.000000E+00
      vertex 1.000000E+00 1.000000E+00 -1.000000E+00
    endloop
  endfacet
endsolid 
